<svg width="355" height="28" viewBox="0 0 355 28" fill="none" xmlns="http://www.w3.org/2000/svg">
<path d="M353.8 1H83.2C83.0895 1 83 1.08954 83 1.2V1.4322C83 1.4819 83.0185 1.52982 83.0519 1.56662L94.9002 14.6203C94.9694 14.6965 94.9694 14.8129 94.9002 14.8891L83.3035 27.6656C83.1869 27.7941 83.2781 28 83.4516 28H353.8C353.91 28 354 27.9105 354 27.8V1.2C354 1.08954 353.91 1 353.8 1Z" fill="#EAEAEA"/>
<rect x="0.5" y="0.5" width="354" height="27" rx="2.5" stroke="#999999"/>
<path d="M112.185 13.7988H103.312V14.7656H105.385V17.9561H106.609V14.7656H108.908V17.9561H110.101V14.7656H112.185V13.7988ZM104.386 12.8105H111.11V8.62109H109.907V9.78125H105.567V8.62109H104.386V12.8105ZM105.567 11.8545V10.7158H109.907V11.8545H105.567ZM118.254 9.08301H113.388V15.7002H114.204C115.993 15.7002 117.357 15.6519 118.888 15.4102L118.77 14.4434C117.373 14.6689 116.159 14.728 114.569 14.7334V12.7354H117.867V11.79H114.569V10.0605H118.254V9.08301ZM119.736 17.9561H120.939V8.24512H119.736V17.9561Z" fill="#666666"/>
<path d="M61.6953 13.7666H60.6963V15.8828H58.3545V16.71H67.1631V15.8828H64.8105V13.7666H63.8008V15.8828H61.6953V13.7666ZM58.6445 12.7568L59.0635 13.6055C60.6265 13.3154 62.0659 12.3755 62.7104 11.0918C63.3442 12.3755 64.7837 13.3047 66.3682 13.6055L66.7764 12.7568C64.9233 12.4668 63.2422 11.1025 63.2422 9.62012V8.88965H62.168V9.62012C62.1626 11.0972 60.4868 12.4561 58.6445 12.7568ZM73.2917 9.08301H68.0603V9.9209H68.9734V12.7085C68.5598 12.7139 68.1623 12.7139 67.8025 12.7139L67.9206 13.5518C69.5427 13.5518 71.8308 13.5195 73.7966 13.1973L73.7321 12.4346C73.2917 12.4883 72.8352 12.5366 72.3679 12.5688V9.9209H73.2917V9.08301ZM69.1345 16.1191C69.1345 17.2524 70.3698 17.897 72.4109 17.8916C74.4465 17.897 75.6872 17.2524 75.6872 16.1191C75.6872 14.9966 74.4465 14.3628 72.4109 14.3682C70.3698 14.3628 69.1345 14.9966 69.1345 16.1191ZM69.9509 12.687V9.9209H71.3904V12.6333C70.907 12.6602 70.4182 12.6763 69.9509 12.687ZM70.1443 16.1191C70.1496 15.5068 70.9821 15.1577 72.4109 15.1523C73.8342 15.1577 74.6667 15.5068 74.6667 16.1191C74.6667 16.7476 73.8342 17.1021 72.4109 17.1074C70.9821 17.1021 70.1496 16.7476 70.1443 16.1191ZM74.6023 14.1641H75.6228V8.29883H74.6023V14.1641Z" fill="#777777"/>
<path d="M38 1L49.9374 13.9322C49.9727 13.9705 49.9727 14.0295 49.9374 14.0678L38 27" stroke="#999999" stroke-linecap="square"/>
<path d="M83 1L94.9374 13.9322C94.9727 13.9705 94.9727 14.0295 94.9374 14.0678L83 27" stroke="#999999" stroke-linecap="square"/>
</svg>
