<svg width="24" height="24" viewBox="0 0 24 24" fill="none" xmlns="http://www.w3.org/2000/svg">
<path d="M7.42188 9.11279H19.6048" stroke="#777777" stroke-width="1.7" stroke-linecap="round"/>
<path d="M11.3984 6.00488L11.8516 12.2465" stroke="#777777" stroke-width="1.7" stroke-linecap="round"/>
<path d="M3 4H5.1251C5.16714 4 5.20469 4.02629 5.21907 4.06579L8.24434 12.3767C8.25872 12.4162 8.29627 12.4425 8.33831 12.4425H18.7325C18.7757 12.4425 18.814 12.4148 18.8275 12.3738L20.9568 5.90865C20.9781 5.84396 20.9299 5.77737 20.8618 5.77737H6.5122" stroke="#777777" stroke-width="1.7" stroke-linecap="round"/>
<path d="M15.6782 6.05615L15.502 12.2468" stroke="#777777" stroke-width="1.7" stroke-linecap="round"/>
<path d="M8.60376 12.4424L6.86147 15.8516C6.82747 15.9181 6.87579 15.9971 6.95052 15.9971H19.9578" stroke="#777777" stroke-width="1.7" stroke-linecap="round"/>
<ellipse cx="8.13568" cy="19.3044" rx="1.5517" ry="1.57049" fill="#777777"/>
<ellipse cx="18.9208" cy="19.3044" rx="1.5517" ry="1.57049" fill="#777777"/>
</svg>
