<svg width="24" height="24" viewBox="0 0 24 24" fill="none" xmlns="http://www.w3.org/2000/svg">
<rect x="2.85" y="7.46377" width="18.3" height="4.44546" rx="2.22273" stroke="black" stroke-width="1.7"/>
<mask id="path-2-inside-1_97_20884" fill="white">
<path d="M2.96094 11.3916H21.0404V19.0001C21.0404 19.5524 20.5927 20.0001 20.0404 20.0001H3.96094C3.40865 20.0001 2.96094 19.5524 2.96094 19.0001V11.3916Z"/>
</mask>
<path d="M2.96094 11.3916H21.0404V19.0001C21.0404 19.5524 20.5927 20.0001 20.0404 20.0001H3.96094C3.40865 20.0001 2.96094 19.5524 2.96094 19.0001V11.3916Z" stroke="black" stroke-width="3.4" mask="url(#path-2-inside-1_97_20884)"/>
<rect x="13.1602" y="14.8496" width="4.54213" height="1.69176" fill="black"/>
<path d="M9.10586 7C9.10586 5.81259 10.0684 4.85 11.2559 4.85H12.7445C13.9319 4.85 14.8945 5.81259 14.8945 7V7.30576H9.10586V7Z" stroke="black" stroke-width="1.7"/>
</svg>
