<svg width="24" height="24" viewBox="0 0 24 24" fill="none" xmlns="http://www.w3.org/2000/svg">
<path fill-rule="evenodd" clip-rule="evenodd" d="M6.92063 13.3027H4.09434C4.0074 13.3027 3.96187 13.1994 4.02053 13.1352L11.4266 5.03253C11.4662 4.98916 11.5346 4.98916 11.5742 5.03253L18.9803 13.1352C19.0389 13.1994 18.9934 13.3027 18.9065 13.3027H16.589L16.489 13.3027C16.5443 13.3027 16.589 13.3474 16.589 13.4027V17.9C16.589 17.9552 16.5443 18 16.489 18H12.6181C12.5629 18 12.5181 17.9552 12.5181 17.9V13.3027H11.0915C11.0363 13.3027 10.9915 13.3474 10.9915 13.4027V17.9C10.9915 17.9552 10.9468 18 10.8915 18H7.02063C6.9654 18 6.92063 17.9552 6.92063 17.9V13.4027C6.92063 13.3474 6.9654 13.3027 7.02063 13.3027L6.92063 13.3027Z" fill="#666666"/>
<path d="M6.92063 13.3027L6.92064 12.8027H6.92063V13.3027ZM4.02053 13.1352L4.38959 13.4725L4.38959 13.4725L4.02053 13.1352ZM11.4266 5.03253L11.0575 4.6952L11.0575 4.6952L11.4266 5.03253ZM11.5742 5.03253L11.2051 5.36987L11.2051 5.36987L11.5742 5.03253ZM18.9803 13.1352L18.6112 13.4725V13.4725L18.9803 13.1352ZM16.589 13.3027V12.8027H16.589L16.589 13.3027ZM16.489 13.3027L16.489 12.8027L16.489 13.8027V13.3027ZM12.5181 13.3027H13.0181V12.8027H12.5181V13.3027ZM7.02063 13.3027V13.8027L7.02064 12.8027L7.02063 13.3027ZM4.09434 13.8027H6.92063V12.8027H4.09434V13.8027ZM3.65146 12.7979C3.29952 13.1829 3.57269 13.8027 4.09434 13.8027V12.8027C4.4421 12.8027 4.62422 13.2158 4.38959 13.4725L3.65146 12.7979ZM11.0575 4.6952L3.65146 12.7979L4.38959 13.4725L11.7956 5.36987L11.0575 4.6952ZM11.9433 4.6952C11.7054 4.43493 11.2954 4.43493 11.0575 4.6952L11.7956 5.36987C11.6371 5.54338 11.3637 5.54338 11.2051 5.36987L11.9433 4.6952ZM19.3493 12.7979L11.9433 4.6952L11.2051 5.36987L18.6112 13.4725L19.3493 12.7979ZM18.9065 13.8027C19.4281 13.8027 19.7013 13.1829 19.3493 12.7978L18.6112 13.4725C18.3766 13.2158 18.5587 12.8027 18.9065 12.8027V13.8027ZM16.589 13.8027H18.9065V12.8027H16.589V13.8027ZM16.489 13.8027L16.589 13.8027L16.589 12.8027L16.489 12.8027L16.489 13.8027ZM16.489 13.8027C16.2681 13.8027 16.089 13.6236 16.089 13.4027H17.089C17.089 13.0713 16.8204 12.8027 16.489 12.8027V13.8027ZM16.089 13.4027V17.9H17.089V13.4027H16.089ZM16.089 17.9C16.089 17.6791 16.2681 17.5 16.489 17.5V18.5C16.8204 18.5 17.089 18.2314 17.089 17.9H16.089ZM16.489 17.5H12.6181V18.5H16.489V17.5ZM12.6181 17.5C12.839 17.5 13.0181 17.6791 13.0181 17.9H12.0181C12.0181 18.2314 12.2868 18.5 12.6181 18.5V17.5ZM13.0181 17.9V13.3027H12.0181V17.9H13.0181ZM11.0915 13.8027H12.5181V12.8027H11.0915V13.8027ZM11.4915 13.4027C11.4915 13.6236 11.3124 13.8027 11.0915 13.8027V12.8027C10.7602 12.8027 10.4915 13.0713 10.4915 13.4027H11.4915ZM11.4915 17.9V13.4027H10.4915V17.9H11.4915ZM10.8915 18.5C11.2229 18.5 11.4915 18.2314 11.4915 17.9H10.4915C10.4915 17.6791 10.6706 17.5 10.8915 17.5V18.5ZM7.02063 18.5H10.8915V17.5H7.02063V18.5ZM6.42063 17.9C6.42063 18.2314 6.68926 18.5 7.02063 18.5V17.5C7.24155 17.5 7.42063 17.6791 7.42063 17.9H6.42063ZM6.42063 13.4027V17.9H7.42063V13.4027H6.42063ZM7.02063 12.8027C6.68926 12.8027 6.42063 13.0713 6.42063 13.4027H7.42063C7.42063 13.6236 7.24155 13.8027 7.02063 13.8027V12.8027ZM6.92063 13.8027L7.02063 13.8027L7.02064 12.8027L6.92064 12.8027L6.92063 13.8027Z" fill="#666666"/>
</svg>
