<svg width="24" height="24" viewBox="0 0 24 24" fill="none" xmlns="http://www.w3.org/2000/svg">
<path d="M18.7703 8.97946C18.7703 12.4001 15.912 15.2089 12.3412 15.2089C8.77044 15.2089 5.91211 12.4001 5.91211 8.97946C5.91211 5.55882 8.77044 2.75 12.3412 2.75C15.912 2.75 18.7703 5.55882 18.7703 8.97946Z" stroke="black" stroke-width="1.5"/>
<path d="M6.10156 9.07637C8.38273 9.18919 12.3278 8.5699 13.733 6.50636C13.7717 6.44949 13.8547 6.44404 13.8988 6.49689C14.9118 7.71165 17.1467 9.89872 18.5687 9.36361" stroke="black" stroke-width="1.5" stroke-linecap="round"/>
<path d="M3 21.0001C3.28552 19.6276 4.75611 16.3328 8.35436 14.1338" stroke="black" stroke-width="1.5" stroke-linecap="round"/>
<path d="M22 20.9994C21.7143 19.626 20.2428 16.3292 16.6424 14.1289" stroke="black" stroke-width="1.5" stroke-linecap="round"/>
</svg>
