<svg width="24" height="24" viewBox="0 0 24 24" fill="none" xmlns="http://www.w3.org/2000/svg">
<circle cx="11.9897" cy="11.2935" r="10.1397" stroke="black" stroke-width="1.7"/>
<path d="M10.9274 14.7742V14.8994H12.9361V14.7742C12.9569 13.1757 13.4156 12.4598 14.5972 11.7439C15.8482 10.9794 16.6058 9.92297 16.6058 8.35916C16.6058 6.10033 14.896 4.57128 12.3383 4.57128C10.0031 4.57128 8.11259 5.94048 8.02919 8.44257H10.156C10.2463 6.98996 11.275 6.33664 12.3314 6.33664C13.5129 6.33664 14.4651 7.11507 14.4651 8.33831C14.4651 9.38085 13.8257 10.1037 12.9986 10.618C11.7059 11.4103 10.9483 12.1957 10.9274 14.7742ZM10.5938 17.742C10.5799 18.5065 11.2194 19.1321 11.9908 19.1321C12.7415 19.1321 13.3809 18.5065 13.3809 17.742C13.3809 16.9775 12.7415 16.352 11.9908 16.352C11.2194 16.352 10.5799 16.9775 10.5938 17.742Z" fill="black"/>
</svg>
