<svg width="24" height="24" viewBox="0 0 24 24" fill="none" xmlns="http://www.w3.org/2000/svg">
<path d="M18.1174 13.2549L18.7673 13.8028L18.1174 13.2549C17.8065 13.6237 17.652 14.0994 17.6867 14.5805L18.0898 20.1652C18.0978 20.2761 17.9867 20.3568 17.8837 20.315L12.6969 18.2058L12.3767 18.9932L12.6969 18.2058C12.2501 18.0241 11.7499 18.0241 11.3031 18.2058L11.6233 18.9932L11.3031 18.2058L6.11628 20.315C6.01331 20.3568 5.90216 20.2761 5.91017 20.1652L6.31329 14.5805C6.34802 14.0994 6.19347 13.6237 5.8826 13.2549L2.27383 8.97372C2.20219 8.88873 2.24464 8.75806 2.35256 8.73141L7.78855 7.38902C8.25683 7.27339 8.66143 6.97943 8.91611 6.5698L11.8726 1.81469C11.9313 1.72029 12.0687 1.72029 12.1274 1.81469L15.0839 6.5698C15.3386 6.97943 15.7432 7.27339 16.2115 7.38902L21.6474 8.73141C21.7554 8.75806 21.7978 8.88873 21.7262 8.97372L18.1174 13.2549Z" stroke="black" stroke-width="1.7"/>
</svg>
