<svg width="24" height="24" viewBox="0 0 24 24" fill="none" xmlns="http://www.w3.org/2000/svg">
<path d="M7.98633 12.1148L11.025 8.39111" stroke="black" stroke-width="2" stroke-linecap="round"/>
<path d="M15.8418 12.115L12.8053 8.39404" stroke="black" stroke-width="2" stroke-linecap="round"/>
<rect x="2.85" y="8.08877" width="18.3" height="13.0615" rx="1.15" stroke="black" stroke-width="1.7"/>
<path d="M11.3386 7.08241C11.1771 7.43011 10.8127 7.7225 10.2353 7.84846C9.658 7.9744 8.92537 7.91361 8.19477 7.58955C7.46418 7.26549 6.93495 6.76659 6.65179 6.25899C6.36858 5.75131 6.3537 5.29066 6.51512 4.94296C6.67655 4.59526 7.04103 4.30287 7.61841 4.17691C8.19569 4.05097 8.92832 4.11176 9.65892 4.43582C10.3895 4.75988 10.9187 5.25878 11.2019 5.76638C11.4851 6.27406 11.5 6.73471 11.3386 7.08241Z" stroke="black" stroke-width="1.7"/>
<path d="M12.8888 7.45784C13.1077 7.76693 13.5125 7.98656 14.0917 8.00934C14.6712 8.03213 15.3674 7.84822 16.0147 7.41033C16.662 6.97243 17.0834 6.40037 17.2657 5.86226C17.448 5.32433 17.3803 4.87669 17.1615 4.56759C16.9426 4.25849 16.5378 4.03887 15.9586 4.01609C15.3791 3.9933 14.6829 4.1772 14.0356 4.6151C13.3883 5.053 12.9669 5.62506 12.7846 6.16316C12.6023 6.70109 12.67 7.14874 12.8888 7.45784Z" stroke="black" stroke-width="1.7"/>
</svg>
