<svg width="24" height="24" viewBox="0 0 24 24" fill="none" xmlns="http://www.w3.org/2000/svg">
<mask id="path-1-inside-1_97_20881" fill="white">
<path d="M0 4C0 3.44772 0.447715 3 1 3H11C11.5523 3 12 3.44772 12 4V7C12 7.55228 11.5523 8 11 8H1C0.447715 8 0 7.55228 0 7V4Z"/>
</mask>
<path d="M0 4C0 3.44772 0.447715 3 1 3H11C11.5523 3 12 3.44772 12 4V7C12 7.55228 11.5523 8 11 8H1C0.447715 8 0 7.55228 0 7V4Z" stroke="black" stroke-width="3" mask="url(#path-1-inside-1_97_20881)"/>
<mask id="path-2-inside-2_97_20881" fill="white">
<path d="M12 16C12 16.5523 11.5523 17 11 17L1 17C0.447715 17 3.91405e-08 16.5523 8.74228e-08 16L3.49691e-07 13C3.97973e-07 12.4477 0.447716 12 1 12L11 12C11.5523 12 12 12.4477 12 13L12 16Z"/>
</mask>
<path d="M12 16C12 16.5523 11.5523 17 11 17L1 17C0.447715 17 3.91405e-08 16.5523 8.74228e-08 16L3.49691e-07 13C3.97973e-07 12.4477 0.447716 12 1 12L11 12C11.5523 12 12 12.4477 12 13L12 16Z" stroke="black" stroke-width="3" mask="url(#path-2-inside-2_97_20881)"/>
<mask id="path-3-inside-3_97_20881" fill="white">
<path d="M12 12C12 12.5523 11.5523 13 11 13L0.999999 13C0.447714 13 -9.14534e-07 12.5523 -8.66252e-07 12L-5.16561e-07 8C-4.68278e-07 7.44772 0.447715 7 1 7L11 7C11.5523 7 12 7.44772 12 8L12 12Z"/>
</mask>
<path d="M12 12C12 12.5523 11.5523 13 11 13L0.999999 13C0.447714 13 -9.14534e-07 12.5523 -8.66252e-07 12L-5.16561e-07 8C-4.68278e-07 7.44772 0.447715 7 1 7L11 7C11.5523 7 12 7.44772 12 8L12 12Z" stroke="black" stroke-width="3" mask="url(#path-3-inside-3_97_20881)"/>
<rect x="4.85" y="7.85" width="16.3" height="11.3" rx="2.15" fill="white" stroke="black" stroke-width="1.7"/>
<rect x="8" y="12" width="3" height="3" fill="black"/>
</svg>
